<svg xmlns="http://www.w3.org/2000/svg" viewBox="0 0 16 16"><path d="M3.5 14h-3a.5.5 0 01-.5-.5v-3a.5.5 0 01.5-.5h3a.5.5 0 01.5.5v3a.5.5 0 01-.5.5zM1 13h2v-2H1zm8.5 1h-3a.5.5 0 01-.5-.5v-3a.5.5 0 01.5-.5h3a.5.5 0 01.5.5v3a.5.5 0 01-.5.5zM7 13h2v-2H7zm2.5-8h-3a.5.5 0 01-.5-.5v-3a.5.5 0 01.5-.5h3a.5.5 0 01.5.5v3a.5.5 0 01-.5.5zM7 4h2V2H7zm8.5 10h-3a.5.5 0 01-.5-.5v-3a.5.5 0 01.5-.5h3a.5.5 0 01.5.5v3a.5.5 0 01-.5.5zM13 13h2v-2h-2z"/><path d="M14 11a.5.5 0 01-.5-.5V8h-11v2.5a.5.5 0 01-1 0v-3A.5.5 0 012 7h12a.5.5 0 01.5.5v3a.5.5 0 01-.5.5z"/><path d="M8 11a.5.5 0 01-.5-.5v-6a.5.5 0 011 0v6a.5.5 0 01-.5.5z"/></svg>